<svg width="269" height="269" viewBox="0 0 269 269" fill="none" xmlns="http://www.w3.org/2000/svg">
<rect x="0.000976562" width="268.617" height="268.617" fill="#E8FF3F"/>
<mask id="mask0_4873_299" style="mask-type:alpha" maskUnits="userSpaceOnUse" x="0" y="0" width="269" height="269">
<rect width="268.617" height="268.617" fill="#E8FF3F"/>
</mask>
<g mask="url(#mask0_4873_299)">
<path d="M-307.026 174.648L-119.639 223.471L-176.767 224.299L-274.56 370.582H-208.513C-175.605 325.783 -122.945 299.693 -67.3584 300.915C-50.3317 301.295 -31.9112 303.299 -12.0195 307.355L-37.7106 370.574H7.70959L74.8875 243.509L44.69 132.83L48.1356 129.904C14.6008 155.097 -30.9897 174.633 -91.772 174.633C-257.711 174.633 -303.016 174.277 -307.026 174.633V174.648Z" fill="#051B23"/>
<path d="M245.095 99.3298L199.187 98.997C199.187 98.997 200.565 67.9371 154.324 67.9371C154.324 67.9371 165.366 44.4855 130.166 19.6484C130.166 19.6484 111.978 75.2126 60.6266 119.802L42.9494 91.8222C42.9494 91.8222 32.1093 104.98 37.5294 117.364H25.1406C25.1406 117.364 25.1561 136.729 44.1186 132.851L51.9313 126.675L48.1295 129.91C52.4191 126.682 56.5151 123.37 60.4253 119.987H60.4176L60.6344 119.809C60.5647 119.871 60.495 119.933 60.4253 119.987L116.709 189.027C116.709 189.027 147.077 157.982 189.872 163.508C232.668 169.019 252.002 131.079 245.095 99.3376V99.3298ZM164.522 112.727C157.251 112.727 151.359 106.837 151.359 99.5698C151.359 92.3021 157.251 86.4121 164.522 86.4121C171.792 86.4121 177.685 92.3021 177.685 99.5698C177.685 106.837 171.792 112.727 164.522 112.727Z" fill="#051B23"/>
<rect x="149.61" y="101.928" width="31.0207" height="14.0332" fill="#051B23"/>
</g>
</svg>
